PathFileType	4	(X/Y/Z)	C:\Users\WrightLab\Desktop\Jo\P1_boxCal23.trc
DataRate	CameraRate	NumFrames	NumMarkers	Units	OrigDataRate	OrigDataStartFrame	OrigNumFrames
100.00	100.00	       24	19	mm	100.00	176	       701
Frame#	Time	Headset_Front			Headset_Back			Headset_Left			Headset_Right			Left_Shoulder			Right_Shoulder			Sternum			C7			Left Elbow			Right Elbow			Left Wrist			Right Wrist			Left ASIS			Right ASIS			S2			Left Knee			Right Knee			Left Ankle			Right Ankle			
		X1	Y1	Z1	X2	Y2	Z2	X3	Y3	Z3	X4	Y4	Z4	X5	Y5	Z5	X6	Y6	Z6	X7	Y7	Z7	X8	Y8	Z8	X9	Y9	Z9	X10	Y10	Z10	X11	Y11	Z11	X12	Y12	Z12	X13	Y13	Z13	X14	Y14	Z14	X15	Y15	Z15	X16	Y16	Z16	X17	Y17	Z17	X18	Y18	Z18	X19	Y19	Z19	

176	1.750													-978.57867	1332.45447	1551.87976				-777.20459	1391.18250	1411.02820													-515.96075	725.67169	1625.01587				-826.65637	839.95038	1604.43115				-1123.47986	522.31665	1588.12671										
177	1.760													-979.77002	1331.68530	1544.56543				-778.21680	1390.51343	1406.33545				-1140.91357	1049.86511	1608.95630							-517.65240	725.44708	1626.28137				-788.80695	856.49921	1562.19592				-1123.15015	521.83075	1580.99670										
178	1.770													-981.85620	1330.88904	1537.76965				-779.69867	1390.00549	1401.60986				-1142.55127	1048.59924	1601.98157							-517.97229	723.97253	1625.16418				-788.54175	855.89301	1557.51575				-1122.84497	521.08667	1573.61121										
179	1.780													-983.13403	1329.82397	1532.48206				-780.78406	1389.35730	1396.89929				-1143.72241	1047.17261	1595.86060							-519.33533	723.71887	1623.75439				-788.89301	856.20831	1552.71057				-1122.66687	520.60217	1566.25330										
180	1.790													-985.29950	1328.63000	1526.49365				-781.87494	1388.55920	1392.20984				-1144.96448	1045.12622	1588.60461							-521.45563	725.45258	1624.96399				-788.57080	854.60510	1550.03784				-1122.61511	519.76660	1557.97070										
181	1.800													-986.99072	1327.53784	1520.13904				-783.63831	1388.04590	1387.55786				-1146.42993	1044.12695	1581.85706							-522.26770	725.56696	1625.08044				-789.74622	854.63080	1544.42273				-1122.64954	519.19061	1550.00195										
182	1.810													-989.16309	1326.27820	1515.30945				-784.87659	1387.36548	1382.95911				-1147.66846	1042.70154	1574.51477							-523.36798	725.63910	1624.37659				-789.78186	854.58289	1541.39294				-1122.60217	518.36804	1542.08582										
183	1.820													-990.98804	1325.18140	1509.71545				-786.45685	1386.79150	1378.38000				-1148.55566	1040.95642	1566.27539							-526.19159	727.34406	1625.01062				-791.05408	854.40228	1536.87646				-1122.26294	517.28973	1533.47546										
184	1.830													-993.31390	1324.12842	1503.77783				-788.56732	1386.47717	1373.83801				-1150.59045	1039.29529	1560.51550							-527.01471	727.45142	1624.99463				-791.54993	853.20947	1532.18237				-1121.90710	516.04718	1525.30652										
185	1.840													-995.27740	1323.05859	1498.33765				-789.86737	1385.86707	1369.32996				-1151.47498	1037.56616	1553.91772							-529.81177	727.41174	1624.43359				-791.11615	852.74902	1528.32349				-1121.16125	514.98358	1517.06641										
186	1.850													-997.53345	1322.00586	1492.94373				-792.29901	1385.55945	1364.80115				-1153.33789	1035.95813	1546.94543							-531.04047	727.23071	1622.73462				-791.77649	851.89526	1522.12805				-1120.49512	513.90594	1508.76062										
187	1.860													-999.65948	1321.21826	1486.40845				-794.11188	1385.30530	1360.32532				-1154.99329	1033.91833	1539.70374							-534.00061	729.80292	1623.58838				-792.49426	852.63086	1515.71899				-1119.81860	512.35687	1500.25867										
188	1.870													-1002.00287	1320.36707	1480.05066				-796.74567	1385.38220	1355.77722				-1156.56409	1032.38831	1532.91516							-535.20996	730.07678	1622.78601				-793.13501	851.90070	1512.86548				-1119.16577	511.07959	1491.70667										
189	1.880													-1004.53003	1319.60107	1474.19275				-798.67737	1385.13831	1351.23706				-1158.11316	1031.03748	1526.19763							-537.06610	732.10443	1624.56946				-793.75476	850.77075	1507.84924				-1118.38147	509.95483	1483.93054										
190	1.890													-1006.94092	1318.81885	1468.50659				-801.28387	1385.28918	1346.64148				-1159.73560	1029.58606	1519.40710							-540.38153	732.41388	1621.48669				-795.44556	851.43597	1502.30591				-1117.60327	508.71460	1476.10974										
191	1.900													-1010.85760	1318.46045	1462.71814				-804.15332	1385.63782	1342.00439				-1161.53259	1028.21387	1512.77283							-544.39929	733.56110	1617.28638				-795.85022	851.85406	1496.09595				-1116.88074	507.36102	1467.79211										
192	1.910													-1012.65924	1317.41223	1456.94385				-806.45874	1385.95056	1337.33521				-1163.16504	1026.71484	1506.02344							-546.11932	736.57385	1621.51465				-795.41974	851.21552	1490.93433				-1116.22583	505.80972	1459.78845										
193	1.920													-1015.54584	1316.76050	1451.15442				-809.64111	1386.67664	1332.60840				-1164.97095	1025.20459	1499.24451							-547.09235	736.86401	1621.40430				-796.14862	851.95856	1484.43408				-1115.41833	504.10861	1452.66492										
194	1.930													-1018.50153	1316.00806	1445.29797				-812.85516	1387.32007	1327.77527				-1167.03406	1024.11792	1492.30090							-550.82086	737.65637	1618.15881				-796.71100	852.24335	1479.06482				-1114.54004	501.98718	1444.46558										
195	1.940													-1021.74738	1315.43457	1439.30908				-815.77600	1387.90405	1322.95398				-1168.91101	1022.79236	1485.25854							-555.97461	738.50452	1614.19238				-797.42383	852.86707	1471.85193				-1114.32275	500.93240	1438.00977										
196	1.950													-1024.96057	1314.79980	1433.26208				-818.86462	1388.89551	1318.13721				-1171.32727	1021.78369	1478.24133							-557.57526	740.36017	1611.98511				-797.52045	852.40912	1465.85693				-1113.89966	498.88702	1431.06775										
197	1.960													-1028.25354	1314.28723	1427.07446				-822.39813	1389.99500	1313.16797				-1173.52759	1020.34900	1471.02649							-561.17401	740.72510	1610.69495				-797.86322	853.67279	1457.12085				-1113.20886	496.52652	1424.24817										
198	1.970													-1031.61975	1313.74280	1420.69946				-826.20593	1391.23730	1308.09375				-1175.82068	1019.21136	1463.67139							-564.01563	743.41449	1610.23792				-798.40717	854.50800	1451.04211				-1112.87585	494.26630	1417.48157										
199	1.980													-1035.06848	1313.03748	1414.24207				-829.81592	1392.48035	1302.99036				-1178.36621	1018.23706	1456.28955							-566.31335	744.28815	1607.65601				-799.74750	854.27679	1444.73376				-1112.66016	491.90021	1410.72668										
